#!OML:ASF E:\acrobat2\Project_11_07_03\Capture day 1\Session 1\Acrobat.ASF
:FULLY-SPECIFIED
:DEGREES
704
root 8.48064 7.77624 -0.591105 -32.6426 -17.5958 14.0808
lowerback 30.4326 3.09657 1.22842
upperback 10.9639 3.91994 -2.79338
thorax -3.96971 1.96737 -5.07813
lowerneck -9.32244 2.14604 0.491575
upperneck -6.76291 2.67846 -4.0026
head -0.48797 1.31523 -1.25545
rclavicle 1.17283e-014 3.81667e-014
rhumerus 65.6942 10.5894 -20.1476
rradius 43.3256
rwrist 18.872
rhand -20.787 -22.4459
rfingers 7.12502
rthumb 5.57997 -52.3524
lclavicle 1.17283e-014 3.81667e-014
lhumerus 74.7751 14.0363 9.74218
lradius 69.4128
lwrist -10.8727
lhand -3.5927 -273.4
lfingers 7.12502
lthumb 22.145 -115.351
rfemur -61.7017 -3.57356 12.6303
rtibia 26.9918
rfoot -204.749 11.1908
rtoes -10.2824
lfemur -91.6096 13.0633 -29.011
ltibia 85.0695
lfoot -39.0126 37.289
ltoes 26.9756
705
root 8.51928 7.93781 -0.543864 -32.7262 -17.1488 13.6449
lowerback 29.7277 3.12755 1.56086
upperback 10.7996 4.0808 -2.70487
thorax -3.80381 2.06065 -5.18044
lowerneck -9.25175 1.70547 0.257654
upperneck -6.00506 2.14787 -3.59772
head -0.28408 1.04885 -1.09703
rclavicle -4.85035e-014 3.65764e-014
rhumerus 63.9214 9.51611 -23.2616
rradius 39.0143
rwrist 19.7116
rhand -19.6124 -24.0278
rfingers 7.12502
rthumb 6.71404 -53.9014
lclavicle -4.85035e-014 3.65764e-014
lhumerus 74.0759 13.9347 8.84337
lradius 66.2301
lwrist -9.10195
lhand 3.31712 -276.542
lfingers 7.12502
lthumb 28.7635 -111.262
rfemur -60.744 -3.82453 10.9998
rtibia 28.1306
rfoot -202.699 8.81353
rtoes -2.85183
lfemur -90.3059 12.6273 -29.127
ltibia 87.8284
lfoot -62.1172 50.9106
ltoes 26.0744
706
root 8.5506 8.09788 -0.491885 -32.7043 -16.6657 12.8336
lowerback 28.8816 3.0878 2.00013
upperback 10.6096 4.18796 -2.43609
thorax -3.6102 2.12599 -5.11637
lowerneck -9.28996 1.34867 -0.0940548
upperneck -4.75738 1.75178 -3.13651
head 0.0924096 0.846307 -0.899327
rclavicle -4.04527e-014 -1.51076e-014
rhumerus 62.147 8.16418 -26.6278
rradius 34.8224
rwrist 20.4513
rhand -18.7689 -25.9914
rfingers 7.12502
rthumb 7.52824 -55.8374
lclavicle -4.04527e-014 -1.51076e-014
lhumerus 73.3641 13.4056 8.25226
lradius 63.0052
lwrist -7.89388
lhand 8.54577 -279.866
lfingers 7.12502
lthumb 33.7458 -106.974
rfemur -59.9405 -4.64737 10.6257
rtibia 29.4115
rfoot -199.931 9.32943
rtoes -4.64715
lfemur -89.0817 12.1077 -28.9014
ltibia 89.0195
lfoot -97.4705 57.3939
ltoes 25.4916
707
root 8.57214 8.25733 -0.445851 -32.4006 -16.2698 11.4093
lowerback 27.937 2.97061 2.74033
upperback 10.3013 4.28268 -1.89537
thorax -3.49869 2.18125 -4.9191
lowerneck -9.00515 1.0391 -0.466952
upperneck -3.46058 1.41162 -2.72576
head 0.437176 0.673976 -0.718497
rclavicle 3.77691e-015 -1.98785e-014
rhumerus 60.1842 6.39788 -30.2669
rradius 30.9563
rwrist 20.9504
rhand -17.8404 -27.3726
rfingers 7.12502
rthumb 8.42431 -57.1846
lclavicle 3.77691e-015 -1.98785e-014
lhumerus 72.7292 12.4771 8.17278
lradius 59.7832
lwrist -7.75024
lhand 13.1673 -283.277
lfingers 7.12502
lthumb 38.1238 -102.488
rfemur -59.2586 -5.51549 11.0854
rtibia 30.7031
rfoot -197.339 9.64105
rtoes -3.11396
lfemur -88.0446 11.5948 -28.1131
ltibia 88.1557
lfoot -134.468 53.027
ltoes 23.4091
708
root 8.59027 8.4175 -0.403327 -32.0098 -15.6882 9.6916
lowerback 27.0714 2.80479 3.60839
upperback 9.88915 4.33947 -1.28085
thorax -3.53082 2.21231 -4.71557
lowerneck -8.75405 0.630838 -0.781157
upperneck -1.92113 0.933147 -2.33785
head 0.869973 0.428449 -0.561419
rclavicle -5.41937e-014 2.8625e-014
rhumerus 57.9184 4.13132 -34.0673
rradius 27.4853
rwrist 21.4733
rhand -16.6678 -28.9232
rfingers 7.12502
rthumb 9.55588 -58.6865
lclavicle -5.41937e-014 2.8625e-014
lhumerus 72.3564 11.2149 8.52069
lradius 56.5538
lwrist -8.22674
lhand 16.6277 -286.666
lfingers 7.12502
lthumb 41.3815 -98.1278
rfemur -58.4449 -6.34017 11.4182
rtibia 31.5096
rfoot -195.768 8.38638
rtoes 10.9952
lfemur -86.9512 10.8375 -27.1452
ltibia 85.4244
lfoot -159.437 40.7177
ltoes 20.9642
